<svg width="50" height="50" viewBox="0 0 50 50" fill="none" xmlns="http://www.w3.org/2000/svg">
<g clip-path="url(#clip0_5_70)">
<path d="M36.2013 0.720215H13.7978C6.1897 0.720215 0 6.79079 0 14.2521V36.2234C0 43.685 6.1897 49.7553 13.7978 49.7553H36.2013C43.81 49.7553 49.9997 43.6847 49.9997 36.2234V14.2521C50 6.79079 43.81 0.720215 36.2013 0.720215ZM45.5638 36.2234C45.5638 41.2861 41.3639 45.4047 36.2016 45.4047H13.7978C8.63583 45.405 4.43622 41.2861 4.43622 36.2234V14.2521C4.43622 9.18973 8.63583 5.07085 13.7978 5.07085H36.2013C41.3636 5.07085 45.5635 9.18973 45.5635 14.2521V36.2234H45.5638Z" fill="white"/>
<path d="M24.9998 12.6033C17.8957 12.6033 12.1162 18.2713 12.1162 25.2384C12.1162 32.2052 17.8957 37.8729 24.9998 37.8729C32.104 37.8729 37.8835 32.2052 37.8835 25.2384C37.8835 18.2713 32.104 12.6033 24.9998 12.6033ZM24.9998 33.522C20.3421 33.522 16.5524 29.806 16.5524 25.2381C16.5524 20.6699 20.3418 16.9536 24.9998 16.9536C29.6579 16.9536 33.4473 20.6699 33.4473 25.2381C33.4473 29.806 29.6576 33.522 24.9998 33.522Z" fill="white"/>
<path d="M38.4239 8.91431C37.5691 8.91431 36.7295 9.25366 36.1259 9.84824C35.5193 10.4399 35.1706 11.2636 35.1706 12.1048C35.1706 12.9433 35.5196 13.7667 36.1259 14.3613C36.7292 14.953 37.5691 15.2952 38.4239 15.2952C39.2815 15.2952 40.1185 14.953 40.7248 14.3613C41.3311 13.7667 41.6771 12.943 41.6771 12.1048C41.6771 11.2636 41.3311 10.4399 40.7248 9.84824C40.1214 9.25366 39.2815 8.91431 38.4239 8.91431Z" fill="white"/>
</g>
<defs>
<clipPath id="clip0_5_70">
<rect width="50" height="49.0354" fill="white" transform="translate(0 0.720215)"/>
</clipPath>
</defs>
</svg>
