<svg width="60" height="60" viewBox="0 0 60 60" fill="none" xmlns="http://www.w3.org/2000/svg">
<path d="M56 14.4231C54.086 15.2567 52.03 15.8176 49.872 16.0707C52.076 14.7761 53.766 12.7265 54.562 10.2825C52.502 11.481 50.218 12.3518 47.786 12.8226C45.84 10.7886 43.068 9.51758 40 9.51758C34.108 9.51758 29.332 14.2034 29.332 19.9798C29.332 20.7996 29.428 21.5999 29.608 22.3629C20.742 21.9274 12.882 17.7614 7.61799 11.43C6.70199 12.9756 6.17599 14.7722 6.17599 16.6924C6.17599 20.3211 8.05799 23.524 10.92 25.3992C9.17199 25.3442 7.52599 24.8735 6.08799 24.0909C6.08799 24.136 6.08799 24.1772 6.08799 24.2223C6.08799 29.2926 9.76399 33.5214 14.646 34.4805C13.752 34.7198 12.808 34.8473 11.834 34.8473C11.148 34.8473 10.478 34.7806 9.82799 34.661C11.186 38.8172 15.126 41.8437 19.794 41.928C16.144 44.7348 11.544 46.4079 6.54399 46.4079C5.68399 46.4079 4.83399 46.3588 3.99799 46.2608C8.71999 49.2284 14.326 50.9603 20.352 50.9603C39.976 50.9603 50.704 35.0179 50.704 21.1919C50.704 20.7388 50.694 20.2877 50.674 19.8385C52.76 18.3616 54.57 16.5198 56 14.4231Z" fill="white"/>
</svg>
